<mxfile host="app.diagrams.net" modified="2020-11-04T12:37:18.734Z" agent="5.0 (Windows NT 10.0; Win64; x64) AppleWebKit/537.36 (KHTML, like Gecko) Chrome/86.0.4240.183 Safari/537.36" etag="fZkFDddTL4Wj6IpPSr_y" version="13.8.9" type="github">
  <diagram id="C5RBs43oDa-KdzZeNtuy" name="Page-1">
    <mxGraphModel dx="2249" dy="1963" grid="1" gridSize="10" guides="1" tooltips="1" connect="1" arrows="1" fold="1" page="1" pageScale="1" pageWidth="827" pageHeight="1169" math="0" shadow="0">
      <root>
        <mxCell id="WIyWlLk6GJQsqaUBKTNV-0" />
        <mxCell id="WIyWlLk6GJQsqaUBKTNV-1" parent="WIyWlLk6GJQsqaUBKTNV-0" />
        <mxCell id="WCMqi-JjXJPowefvI_k4-24" style="edgeStyle=none;rounded=0;orthogonalLoop=1;jettySize=auto;html=1;exitX=0;exitY=0.25;exitDx=0;exitDy=0;" edge="1" parent="WIyWlLk6GJQsqaUBKTNV-1">
          <mxGeometry relative="1" as="geometry">
            <mxPoint x="280" y="290" as="sourcePoint" />
            <mxPoint x="280" y="290" as="targetPoint" />
          </mxGeometry>
        </mxCell>
        <mxCell id="WCMqi-JjXJPowefvI_k4-28" value="" style="shape=table;html=1;whiteSpace=wrap;startSize=0;container=1;collapsible=0;childLayout=tableLayout;swimlaneFillColor=none;" vertex="1" parent="WIyWlLk6GJQsqaUBKTNV-1">
          <mxGeometry x="40" y="480" width="170" height="200" as="geometry" />
        </mxCell>
        <mxCell id="WCMqi-JjXJPowefvI_k4-29" value="" style="shape=partialRectangle;html=1;whiteSpace=wrap;collapsible=0;dropTarget=0;pointerEvents=0;fillColor=none;top=0;left=0;bottom=0;right=0;points=[[0,0.5],[1,0.5]];portConstraint=eastwest;" vertex="1" parent="WCMqi-JjXJPowefvI_k4-28">
          <mxGeometry width="170" height="40" as="geometry" />
        </mxCell>
        <mxCell id="WCMqi-JjXJPowefvI_k4-30" value="Покупатель" style="shape=partialRectangle;html=1;whiteSpace=wrap;connectable=0;overflow=hidden;fillColor=none;top=0;left=0;bottom=0;right=0;" vertex="1" parent="WCMqi-JjXJPowefvI_k4-29">
          <mxGeometry width="170" height="40" as="geometry" />
        </mxCell>
        <mxCell id="WCMqi-JjXJPowefvI_k4-31" value="" style="shape=partialRectangle;html=1;whiteSpace=wrap;collapsible=0;dropTarget=0;pointerEvents=0;fillColor=none;top=0;left=0;bottom=0;right=0;points=[[0,0.5],[1,0.5]];portConstraint=eastwest;" vertex="1" parent="WCMqi-JjXJPowefvI_k4-28">
          <mxGeometry y="40" width="170" height="160" as="geometry" />
        </mxCell>
        <mxCell id="WCMqi-JjXJPowefvI_k4-32" value="&lt;span&gt;&lt;b&gt;Телефон&lt;/b&gt;&lt;br&gt;Пароль&lt;br&gt;Имя&lt;br&gt;Почта&lt;/span&gt;" style="shape=partialRectangle;html=1;whiteSpace=wrap;connectable=0;overflow=hidden;fillColor=none;top=0;left=0;bottom=0;right=0;" vertex="1" parent="WCMqi-JjXJPowefvI_k4-31">
          <mxGeometry width="170" height="160" as="geometry" />
        </mxCell>
        <mxCell id="WCMqi-JjXJPowefvI_k4-46" value="" style="shape=table;html=1;whiteSpace=wrap;startSize=0;container=1;collapsible=0;childLayout=tableLayout;" vertex="1" parent="WIyWlLk6GJQsqaUBKTNV-1">
          <mxGeometry x="-307.5" y="350" width="160" height="160" as="geometry" />
        </mxCell>
        <mxCell id="WCMqi-JjXJPowefvI_k4-47" value="" style="shape=partialRectangle;html=1;whiteSpace=wrap;collapsible=0;dropTarget=0;pointerEvents=0;fillColor=none;top=0;left=0;bottom=0;right=0;points=[[0,0.5],[1,0.5]];portConstraint=eastwest;" vertex="1" parent="WCMqi-JjXJPowefvI_k4-46">
          <mxGeometry width="160" height="40" as="geometry" />
        </mxCell>
        <mxCell id="WCMqi-JjXJPowefvI_k4-48" value="Сообщение Покупателя" style="shape=partialRectangle;html=1;whiteSpace=wrap;connectable=0;overflow=hidden;fillColor=none;top=0;left=0;bottom=0;right=0;" vertex="1" parent="WCMqi-JjXJPowefvI_k4-47">
          <mxGeometry width="160" height="40" as="geometry" />
        </mxCell>
        <mxCell id="WCMqi-JjXJPowefvI_k4-49" value="" style="shape=partialRectangle;html=1;whiteSpace=wrap;collapsible=0;dropTarget=0;pointerEvents=0;fillColor=none;top=0;left=0;bottom=0;right=0;points=[[0,0.5],[1,0.5]];portConstraint=eastwest;" vertex="1" parent="WCMqi-JjXJPowefvI_k4-46">
          <mxGeometry y="40" width="160" height="120" as="geometry" />
        </mxCell>
        <mxCell id="WCMqi-JjXJPowefvI_k4-50" value="&lt;b&gt;Сообщение Покупателя ID&lt;/b&gt;&lt;br&gt;Дата&lt;br&gt;Отправитель&lt;br&gt;Получатель" style="shape=partialRectangle;html=1;whiteSpace=wrap;connectable=0;overflow=hidden;fillColor=none;top=0;left=0;bottom=0;right=0;" vertex="1" parent="WCMqi-JjXJPowefvI_k4-49">
          <mxGeometry width="160" height="120" as="geometry" />
        </mxCell>
        <mxCell id="WCMqi-JjXJPowefvI_k4-51" value="" style="shape=table;html=1;whiteSpace=wrap;startSize=0;container=1;collapsible=0;childLayout=tableLayout;" vertex="1" parent="WIyWlLk6GJQsqaUBKTNV-1">
          <mxGeometry x="-570" y="260" width="170" height="140" as="geometry" />
        </mxCell>
        <mxCell id="WCMqi-JjXJPowefvI_k4-52" value="" style="shape=partialRectangle;html=1;whiteSpace=wrap;collapsible=0;dropTarget=0;pointerEvents=0;fillColor=none;top=0;left=0;bottom=0;right=0;points=[[0,0.5],[1,0.5]];portConstraint=eastwest;" vertex="1" parent="WCMqi-JjXJPowefvI_k4-51">
          <mxGeometry width="170" height="40" as="geometry" />
        </mxCell>
        <mxCell id="WCMqi-JjXJPowefvI_k4-53" value="Диолог" style="shape=partialRectangle;html=1;whiteSpace=wrap;connectable=0;overflow=hidden;fillColor=none;top=0;left=0;bottom=0;right=0;" vertex="1" parent="WCMqi-JjXJPowefvI_k4-52">
          <mxGeometry width="170" height="40" as="geometry" />
        </mxCell>
        <mxCell id="WCMqi-JjXJPowefvI_k4-54" value="" style="shape=partialRectangle;html=1;whiteSpace=wrap;collapsible=0;dropTarget=0;pointerEvents=0;fillColor=none;top=0;left=0;bottom=0;right=0;points=[[0,0.5],[1,0.5]];portConstraint=eastwest;" vertex="1" parent="WCMqi-JjXJPowefvI_k4-51">
          <mxGeometry y="40" width="170" height="100" as="geometry" />
        </mxCell>
        <mxCell id="WCMqi-JjXJPowefvI_k4-55" value="&lt;b&gt;Диалог ID&lt;/b&gt;&lt;br&gt;Сообщение Покупателя&lt;br&gt;Сообщение Представителя компании" style="shape=partialRectangle;html=1;whiteSpace=wrap;connectable=0;overflow=hidden;fillColor=none;top=0;left=0;bottom=0;right=0;" vertex="1" parent="WCMqi-JjXJPowefvI_k4-54">
          <mxGeometry width="170" height="100" as="geometry" />
        </mxCell>
        <mxCell id="WCMqi-JjXJPowefvI_k4-56" value="" style="shape=table;html=1;whiteSpace=wrap;startSize=0;container=1;collapsible=0;childLayout=tableLayout;" vertex="1" parent="WIyWlLk6GJQsqaUBKTNV-1">
          <mxGeometry x="550" y="260" width="120" height="140" as="geometry" />
        </mxCell>
        <mxCell id="WCMqi-JjXJPowefvI_k4-57" value="" style="shape=partialRectangle;html=1;whiteSpace=wrap;collapsible=0;dropTarget=0;pointerEvents=0;fillColor=none;top=0;left=0;bottom=0;right=0;points=[[0,0.5],[1,0.5]];portConstraint=eastwest;" vertex="1" parent="WCMqi-JjXJPowefvI_k4-56">
          <mxGeometry width="120" height="40" as="geometry" />
        </mxCell>
        <mxCell id="WCMqi-JjXJPowefvI_k4-58" value="Товар" style="shape=partialRectangle;html=1;whiteSpace=wrap;connectable=0;overflow=hidden;fillColor=none;top=0;left=0;bottom=0;right=0;" vertex="1" parent="WCMqi-JjXJPowefvI_k4-57">
          <mxGeometry width="120" height="40" as="geometry" />
        </mxCell>
        <mxCell id="WCMqi-JjXJPowefvI_k4-59" value="" style="shape=partialRectangle;html=1;whiteSpace=wrap;collapsible=0;dropTarget=0;pointerEvents=0;fillColor=none;top=0;left=0;bottom=0;right=0;points=[[0,0.5],[1,0.5]];portConstraint=eastwest;" vertex="1" parent="WCMqi-JjXJPowefvI_k4-56">
          <mxGeometry y="40" width="120" height="100" as="geometry" />
        </mxCell>
        <mxCell id="WCMqi-JjXJPowefvI_k4-60" value="&lt;b&gt;Товар ID&lt;/b&gt;&amp;nbsp;&lt;br&gt;Название&lt;br&gt;Цена&lt;br&gt;Категория такара" style="shape=partialRectangle;html=1;whiteSpace=wrap;connectable=0;overflow=hidden;fillColor=none;top=0;left=0;bottom=0;right=0;" vertex="1" parent="WCMqi-JjXJPowefvI_k4-59">
          <mxGeometry width="120" height="100" as="geometry" />
        </mxCell>
        <mxCell id="WCMqi-JjXJPowefvI_k4-61" value="" style="shape=table;html=1;whiteSpace=wrap;startSize=0;container=1;collapsible=0;childLayout=tableLayout;" vertex="1" parent="WIyWlLk6GJQsqaUBKTNV-1">
          <mxGeometry x="290" y="260" width="190" height="140" as="geometry" />
        </mxCell>
        <mxCell id="WCMqi-JjXJPowefvI_k4-62" value="" style="shape=partialRectangle;html=1;whiteSpace=wrap;collapsible=0;dropTarget=0;pointerEvents=0;fillColor=none;top=0;left=0;bottom=0;right=0;points=[[0,0.5],[1,0.5]];portConstraint=eastwest;" vertex="1" parent="WCMqi-JjXJPowefvI_k4-61">
          <mxGeometry width="190" height="40" as="geometry" />
        </mxCell>
        <mxCell id="WCMqi-JjXJPowefvI_k4-63" value="Карзина" style="shape=partialRectangle;html=1;whiteSpace=wrap;connectable=0;overflow=hidden;fillColor=none;top=0;left=0;bottom=0;right=0;" vertex="1" parent="WCMqi-JjXJPowefvI_k4-62">
          <mxGeometry width="190" height="40" as="geometry" />
        </mxCell>
        <mxCell id="WCMqi-JjXJPowefvI_k4-64" value="" style="shape=partialRectangle;html=1;whiteSpace=wrap;collapsible=0;dropTarget=0;pointerEvents=0;fillColor=none;top=0;left=0;bottom=0;right=0;points=[[0,0.5],[1,0.5]];portConstraint=eastwest;" vertex="1" parent="WCMqi-JjXJPowefvI_k4-61">
          <mxGeometry y="40" width="190" height="100" as="geometry" />
        </mxCell>
        <mxCell id="WCMqi-JjXJPowefvI_k4-65" value="&lt;b&gt;Карзина ID&lt;/b&gt;&lt;br&gt;Товар" style="shape=partialRectangle;html=1;whiteSpace=wrap;connectable=0;overflow=hidden;fillColor=none;top=0;left=0;bottom=0;right=0;" vertex="1" parent="WCMqi-JjXJPowefvI_k4-64">
          <mxGeometry width="190" height="100" as="geometry" />
        </mxCell>
        <mxCell id="WCMqi-JjXJPowefvI_k4-66" value="" style="shape=table;html=1;whiteSpace=wrap;startSize=0;container=1;collapsible=0;childLayout=tableLayout;" vertex="1" parent="WIyWlLk6GJQsqaUBKTNV-1">
          <mxGeometry x="40" y="245" width="206" height="170" as="geometry" />
        </mxCell>
        <mxCell id="WCMqi-JjXJPowefvI_k4-67" value="" style="shape=partialRectangle;html=1;whiteSpace=wrap;collapsible=0;dropTarget=0;pointerEvents=0;fillColor=none;top=0;left=0;bottom=0;right=0;points=[[0,0.5],[1,0.5]];portConstraint=eastwest;" vertex="1" parent="WCMqi-JjXJPowefvI_k4-66">
          <mxGeometry width="206" height="40" as="geometry" />
        </mxCell>
        <mxCell id="WCMqi-JjXJPowefvI_k4-68" value="Заказ" style="shape=partialRectangle;html=1;whiteSpace=wrap;connectable=0;overflow=hidden;fillColor=none;top=0;left=0;bottom=0;right=0;" vertex="1" parent="WCMqi-JjXJPowefvI_k4-67">
          <mxGeometry width="206" height="40" as="geometry" />
        </mxCell>
        <mxCell id="WCMqi-JjXJPowefvI_k4-69" value="" style="shape=partialRectangle;html=1;whiteSpace=wrap;collapsible=0;dropTarget=0;pointerEvents=0;fillColor=none;top=0;left=0;bottom=0;right=0;points=[[0,0.5],[1,0.5]];portConstraint=eastwest;" vertex="1" parent="WCMqi-JjXJPowefvI_k4-66">
          <mxGeometry y="40" width="206" height="130" as="geometry" />
        </mxCell>
        <mxCell id="WCMqi-JjXJPowefvI_k4-70" value="&lt;b&gt;Заказ ID&lt;/b&gt;&lt;br&gt;Карзина&lt;br&gt;Способ оплаты&lt;br&gt;Дата оплаты" style="shape=partialRectangle;html=1;whiteSpace=wrap;connectable=0;overflow=hidden;fillColor=none;top=0;left=0;bottom=0;right=0;" vertex="1" parent="WCMqi-JjXJPowefvI_k4-69">
          <mxGeometry width="206" height="130" as="geometry" />
        </mxCell>
        <mxCell id="WCMqi-JjXJPowefvI_k4-72" value="" style="shape=table;html=1;whiteSpace=wrap;startSize=0;container=1;collapsible=0;childLayout=tableLayout;" vertex="1" parent="WIyWlLk6GJQsqaUBKTNV-1">
          <mxGeometry x="110" y="-80" width="200" height="160" as="geometry" />
        </mxCell>
        <mxCell id="WCMqi-JjXJPowefvI_k4-73" value="" style="shape=partialRectangle;html=1;whiteSpace=wrap;collapsible=0;dropTarget=0;pointerEvents=0;fillColor=none;top=0;left=0;bottom=0;right=0;points=[[0,0.5],[1,0.5]];portConstraint=eastwest;" vertex="1" parent="WCMqi-JjXJPowefvI_k4-72">
          <mxGeometry width="200" height="40" as="geometry" />
        </mxCell>
        <mxCell id="WCMqi-JjXJPowefvI_k4-74" value="Магазин" style="shape=partialRectangle;html=1;whiteSpace=wrap;connectable=0;overflow=hidden;fillColor=none;top=0;left=0;bottom=0;right=0;" vertex="1" parent="WCMqi-JjXJPowefvI_k4-73">
          <mxGeometry width="200" height="40" as="geometry" />
        </mxCell>
        <mxCell id="WCMqi-JjXJPowefvI_k4-75" value="" style="shape=partialRectangle;html=1;whiteSpace=wrap;collapsible=0;dropTarget=0;pointerEvents=0;fillColor=none;top=0;left=0;bottom=0;right=0;points=[[0,0.5],[1,0.5]];portConstraint=eastwest;" vertex="1" parent="WCMqi-JjXJPowefvI_k4-72">
          <mxGeometry y="40" width="200" height="120" as="geometry" />
        </mxCell>
        <mxCell id="WCMqi-JjXJPowefvI_k4-76" value="Представитель компании&lt;br&gt;Каткгория товара" style="shape=partialRectangle;html=1;whiteSpace=wrap;connectable=0;overflow=hidden;fillColor=none;top=0;left=0;bottom=0;right=0;" vertex="1" parent="WCMqi-JjXJPowefvI_k4-75">
          <mxGeometry width="200" height="120" as="geometry" />
        </mxCell>
        <mxCell id="WCMqi-JjXJPowefvI_k4-82" value="" style="shape=table;html=1;whiteSpace=wrap;startSize=0;container=1;collapsible=0;childLayout=tableLayout;" vertex="1" parent="WIyWlLk6GJQsqaUBKTNV-1">
          <mxGeometry x="-100" y="20" width="160" height="120.00000000000023" as="geometry" />
        </mxCell>
        <mxCell id="WCMqi-JjXJPowefvI_k4-83" value="" style="shape=partialRectangle;html=1;whiteSpace=wrap;collapsible=0;dropTarget=0;pointerEvents=0;fillColor=none;top=0;left=0;bottom=0;right=0;points=[[0,0.5],[1,0.5]];portConstraint=eastwest;" vertex="1" parent="WCMqi-JjXJPowefvI_k4-82">
          <mxGeometry width="160" height="40" as="geometry" />
        </mxCell>
        <mxCell id="WCMqi-JjXJPowefvI_k4-84" value="Представитель магазина" style="shape=partialRectangle;html=1;whiteSpace=wrap;connectable=0;overflow=hidden;fillColor=none;top=0;left=0;bottom=0;right=0;" vertex="1" parent="WCMqi-JjXJPowefvI_k4-83">
          <mxGeometry width="160" height="40" as="geometry" />
        </mxCell>
        <mxCell id="WCMqi-JjXJPowefvI_k4-85" value="" style="shape=partialRectangle;html=1;whiteSpace=wrap;collapsible=0;dropTarget=0;pointerEvents=0;fillColor=none;top=0;left=0;bottom=0;right=0;points=[[0,0.5],[1,0.5]];portConstraint=eastwest;" vertex="1" parent="WCMqi-JjXJPowefvI_k4-82">
          <mxGeometry y="40" width="160" height="80" as="geometry" />
        </mxCell>
        <mxCell id="WCMqi-JjXJPowefvI_k4-86" value="&lt;b&gt;Название мессенжера&lt;/b&gt;&lt;br&gt;пороль мессенжера&lt;br&gt;Логин мессенжера" style="shape=partialRectangle;html=1;whiteSpace=wrap;connectable=0;overflow=hidden;fillColor=none;top=0;left=0;bottom=0;right=0;" vertex="1" parent="WCMqi-JjXJPowefvI_k4-85">
          <mxGeometry width="160" height="80" as="geometry" />
        </mxCell>
        <mxCell id="WCMqi-JjXJPowefvI_k4-97" value="" style="shape=table;html=1;whiteSpace=wrap;startSize=0;container=1;collapsible=0;childLayout=tableLayout;shadow=0;" vertex="1" parent="WIyWlLk6GJQsqaUBKTNV-1">
          <mxGeometry x="-310" y="110" width="165" height="130" as="geometry" />
        </mxCell>
        <mxCell id="WCMqi-JjXJPowefvI_k4-98" value="" style="shape=partialRectangle;html=1;whiteSpace=wrap;collapsible=0;dropTarget=0;pointerEvents=0;fillColor=none;top=0;left=0;bottom=0;right=0;points=[[0,0.5],[1,0.5]];portConstraint=eastwest;" vertex="1" parent="WCMqi-JjXJPowefvI_k4-97">
          <mxGeometry width="165" height="40" as="geometry" />
        </mxCell>
        <mxCell id="WCMqi-JjXJPowefvI_k4-99" value="Сообщение Представителя компании" style="shape=partialRectangle;html=1;whiteSpace=wrap;connectable=0;overflow=hidden;fillColor=none;top=0;left=0;bottom=0;right=0;" vertex="1" parent="WCMqi-JjXJPowefvI_k4-98">
          <mxGeometry width="165" height="40" as="geometry" />
        </mxCell>
        <mxCell id="WCMqi-JjXJPowefvI_k4-105" style="edgeStyle=none;rounded=0;orthogonalLoop=1;jettySize=auto;html=1;" edge="1" parent="WCMqi-JjXJPowefvI_k4-97" source="WCMqi-JjXJPowefvI_k4-100" target="WCMqi-JjXJPowefvI_k4-98">
          <mxGeometry relative="1" as="geometry" />
        </mxCell>
        <mxCell id="WCMqi-JjXJPowefvI_k4-100" value="" style="shape=partialRectangle;html=1;whiteSpace=wrap;collapsible=0;dropTarget=0;pointerEvents=0;fillColor=none;top=0;left=0;bottom=0;right=0;points=[[0,0.5],[1,0.5]];portConstraint=eastwest;" vertex="1" parent="WCMqi-JjXJPowefvI_k4-97">
          <mxGeometry y="40" width="165" height="90" as="geometry" />
        </mxCell>
        <mxCell id="WCMqi-JjXJPowefvI_k4-101" value="&lt;b&gt;Сообщение Представителя компании ID&lt;/b&gt;&lt;br&gt;Дата&lt;br&gt;Отправитель&lt;br&gt;Получатель" style="shape=partialRectangle;html=1;whiteSpace=wrap;connectable=0;overflow=hidden;fillColor=none;top=0;left=0;bottom=0;right=0;" vertex="1" parent="WCMqi-JjXJPowefvI_k4-100">
          <mxGeometry width="165" height="90" as="geometry" />
        </mxCell>
        <mxCell id="WCMqi-JjXJPowefvI_k4-103" style="edgeStyle=none;rounded=0;orthogonalLoop=1;jettySize=auto;html=1;exitX=1;exitY=0.5;exitDx=0;exitDy=0;entryX=-0.004;entryY=0.41;entryDx=0;entryDy=0;entryPerimeter=0;" edge="1" parent="WIyWlLk6GJQsqaUBKTNV-1" source="WCMqi-JjXJPowefvI_k4-54" target="WCMqi-JjXJPowefvI_k4-100">
          <mxGeometry relative="1" as="geometry" />
        </mxCell>
        <mxCell id="WCMqi-JjXJPowefvI_k4-104" value="" style="endArrow=classic;html=1;exitX=1;exitY=0.5;exitDx=0;exitDy=0;entryX=0;entryY=0.5;entryDx=0;entryDy=0;" edge="1" parent="WIyWlLk6GJQsqaUBKTNV-1" source="WCMqi-JjXJPowefvI_k4-54" target="WCMqi-JjXJPowefvI_k4-49">
          <mxGeometry width="50" height="50" relative="1" as="geometry">
            <mxPoint x="70" y="500" as="sourcePoint" />
            <mxPoint x="120" y="450" as="targetPoint" />
          </mxGeometry>
        </mxCell>
        <mxCell id="WCMqi-JjXJPowefvI_k4-107" style="edgeStyle=none;rounded=0;orthogonalLoop=1;jettySize=auto;html=1;exitX=1;exitY=0.5;exitDx=0;exitDy=0;entryX=0;entryY=0.5;entryDx=0;entryDy=0;" edge="1" parent="WIyWlLk6GJQsqaUBKTNV-1" source="WCMqi-JjXJPowefvI_k4-69" target="WCMqi-JjXJPowefvI_k4-64">
          <mxGeometry relative="1" as="geometry" />
        </mxCell>
        <mxCell id="WCMqi-JjXJPowefvI_k4-108" style="edgeStyle=none;rounded=0;orthogonalLoop=1;jettySize=auto;html=1;exitX=1;exitY=0.5;exitDx=0;exitDy=0;entryX=0;entryY=0.5;entryDx=0;entryDy=0;" edge="1" parent="WIyWlLk6GJQsqaUBKTNV-1" source="WCMqi-JjXJPowefvI_k4-64" target="WCMqi-JjXJPowefvI_k4-59">
          <mxGeometry relative="1" as="geometry" />
        </mxCell>
        <mxCell id="WCMqi-JjXJPowefvI_k4-109" style="edgeStyle=none;rounded=0;orthogonalLoop=1;jettySize=auto;html=1;exitX=1;exitY=0.5;exitDx=0;exitDy=0;entryX=0;entryY=0.5;entryDx=0;entryDy=0;" edge="1" parent="WIyWlLk6GJQsqaUBKTNV-1" source="WCMqi-JjXJPowefvI_k4-49" target="WCMqi-JjXJPowefvI_k4-31">
          <mxGeometry relative="1" as="geometry" />
        </mxCell>
        <mxCell id="WCMqi-JjXJPowefvI_k4-110" style="edgeStyle=none;rounded=0;orthogonalLoop=1;jettySize=auto;html=1;entryX=0;entryY=0.5;entryDx=0;entryDy=0;exitX=1;exitY=0.5;exitDx=0;exitDy=0;" edge="1" parent="WIyWlLk6GJQsqaUBKTNV-1" source="WCMqi-JjXJPowefvI_k4-100" target="WCMqi-JjXJPowefvI_k4-85">
          <mxGeometry relative="1" as="geometry">
            <mxPoint x="-90" y="210" as="sourcePoint" />
          </mxGeometry>
        </mxCell>
        <mxCell id="WCMqi-JjXJPowefvI_k4-111" style="edgeStyle=none;rounded=0;orthogonalLoop=1;jettySize=auto;html=1;" edge="1" parent="WIyWlLk6GJQsqaUBKTNV-1" source="WCMqi-JjXJPowefvI_k4-75" target="WCMqi-JjXJPowefvI_k4-67">
          <mxGeometry relative="1" as="geometry">
            <mxPoint x="100" y="340" as="targetPoint" />
          </mxGeometry>
        </mxCell>
        <mxCell id="WCMqi-JjXJPowefvI_k4-112" style="edgeStyle=none;rounded=0;orthogonalLoop=1;jettySize=auto;html=1;exitX=0;exitY=0.5;exitDx=0;exitDy=0;entryX=1;entryY=0.5;entryDx=0;entryDy=0;" edge="1" parent="WIyWlLk6GJQsqaUBKTNV-1" source="WCMqi-JjXJPowefvI_k4-75" target="WCMqi-JjXJPowefvI_k4-85">
          <mxGeometry relative="1" as="geometry" />
        </mxCell>
        <mxCell id="WCMqi-JjXJPowefvI_k4-113" value="" style="endArrow=block;dashed=1;endFill=0;endSize=12;html=1;entryX=0;entryY=0.5;entryDx=0;entryDy=0;exitX=1;exitY=0.5;exitDx=0;exitDy=0;" edge="1" parent="WIyWlLk6GJQsqaUBKTNV-1" source="WCMqi-JjXJPowefvI_k4-49" target="WCMqi-JjXJPowefvI_k4-69">
          <mxGeometry width="160" relative="1" as="geometry">
            <mxPoint x="-300" y="420" as="sourcePoint" />
            <mxPoint x="-140" y="420" as="targetPoint" />
          </mxGeometry>
        </mxCell>
      </root>
    </mxGraphModel>
  </diagram>
</mxfile>
